<svg xmlns="http://www.w3.org/2000/svg" viewBox="0 0 765 197.0125" height="197.012" width="765"><defs><filter id="a" color-interpolation-filters="sRGB"><feColorMatrix values="0.21 0.72 0.072 0 0 0.21 0.72 0.072 0 0 0.21 0.72 0.072 0 0 0 0 0 1 0"/></filter></defs><g transform="matrix(1.25 0 0 -1.25 0 197.012)" filter="url(#a)"><path d="M206.13 136.9h-6.8v-21.455l6.652.15c8.82.15 13.604 3.663 13.604 10.913 0 6.652-4.71 10.39-13.455 10.39zm-.45-25.79l-6.352-.074V94.593h-4.785v46.716h11.735c12.334 0 18.238-5.98 18.238-14.577.002-10.242-7.25-15.474-18.835-15.623M232.814 94.59v34.235l4.636.972V94.59h-4.636zm2.32 42.084c-2.093 0-3.14 1.645-3.14 3.44 0 1.716 1.045 3.288 3.14 3.288 2.093 0 3.14-1.572 3.14-3.29-.003-1.793-1.05-3.438-3.14-3.438M260.92 94.517h-4.186l-13.53 34.308h5.008l10.838-28.255 10.465 28.255h4.858L260.92 94.517M294.108 125.61c-7.25 0-12.033-5.754-12.033-13.828 0-8.372 4.858-13.978 12.108-13.978 7.25 0 12.034 5.755 12.034 13.83 0 8.37-4.86 13.977-12.11 13.977zm-.15-31.99c-9.493 0-16.52 7.026-16.52 18.015 0 10.913 7.327 18.164 16.895 18.164 9.567 0 16.444-7.027 16.444-18.016 0-10.915-7.326-18.164-16.818-18.164M328.79 93.47c-6.503 0-9.418 3.59-9.194 10.764l.523 20.256-5.233.298.223 2.916 5.157 1.195.224 7.772h4.41l-.224-7.998h11.438l-.225-4.11h-11.364l-.523-20.482c-.15-4.335 1.42-6.428 5.01-6.428 2.24 0 4.484.747 6.576 1.644l.822-4.037c-2.39-1.117-5.156-1.79-7.622-1.79M361.827 112.156c-11.737-1.346-15.92-3.96-15.92-8.52 0-3.662 2.988-5.98 7.025-5.98 3.663 0 6.803 2.09 8.895 4.483v10.016zm.074-13.453c-2.316-2.84-5.977-5.083-10.014-5.083-6.278 0-10.84 4.037-10.84 9.494 0 6.204 4.86 11.287 20.78 12.184v2.018c0 5.382-2.39 8.148-8.073 8.148-3.738 0-8.298-1.943-11.212-4.11l-1.046 4.335c3.064 2.166 8.223 4.11 12.707 4.11 7.924 0 12.333-3.59 12.26-12.26v-16.443c0-2.466.447-3.512 3.437-3.438l-.3-3.813c-4.484-.3-6.952 1.495-7.475 4.858h-.22v-.002M376.776 94.59v50.38l4.633.973v-51.35h-4.634v-.002M212.71 20.874h-9.27L190.584 67.59h9.716l8.148-35.578 9.718 35.58h10.464l9.868-35.58 8.073 35.58h9.27l-12.856-46.718h-9.418L223.25 56.978l-10.54-36.104M280.428 41.655v.6c0 4.632-2.018 7.548-6.578 7.548-4.858 0-7.774-3.962-8.223-8.223l14.8.075zm-15.024-5.457c.374-5.606 4.186-9.418 10.315-9.418 3.662 0 7.624 1.197 10.764 3.14l1.12-7.326c-3.288-1.792-7.848-2.84-12.482-2.84-11.062 0-18.388 7.026-18.388 18.015 0 11.21 7.475 18.685 17.79 18.685 9.12 0 14.203-5.53 14.203-13.978 0-1.868-.3-4.26-.748-5.756l-22.574-.297v-.225h-.002M311.97 49.055c-2.915 0-5.156-1.122-7.1-2.84V28.8c1.645-1.274 3.886-1.944 6.503-1.944 5.905 0 9.27 4.784 9.27 11.212-.002 6.725-3.216 10.987-8.673 10.987zm.225-29.225c-2.243 0-5.457.447-7.698 1.195l-8.446-1.27v51.052l8.82 1.197V52.046c2.317 2.243 5.457 4.41 9.643 4.41 9.12 0 15.098-7.4 15.098-18.015 0-10.988-7.623-18.61-17.415-18.61M377.223 33.657c0 3.888-3.513 5.307-10.39 7.177-6.728 1.867-14.5 4.86-14.5 14.053 0 8.297 6.352 13.828 16.74 13.828 6.355 0 11.59-1.572 16.07-4.11l-2.24-7.7c-4.11 2.465-9.343 4.036-13.753 4.036-5.455 0-7.85-2.316-7.85-5.53 0-3.812 4.187-5.306 10.616-7.026 7.026-1.943 14.276-5.158 14.276-14.053 0-8.52-6.8-14.576-17.79-14.576-6.205 0-12.407 1.647-16.818 4.336l2.092 7.85c4.335-2.617 9.267-4.486 14.875-4.486 5.086-.002 8.673 2.466 8.673 6.203M415.568 41.655v.6c0 4.632-2.016 7.548-6.576 7.548-4.86 0-7.776-3.962-8.223-8.223l14.798.075zm-15.024-5.457c.374-5.606 4.186-9.418 10.315-9.418 3.662 0 7.624 1.197 10.763 3.14l1.122-7.326c-3.29-1.792-7.85-2.84-12.483-2.84-11.062 0-18.388 7.026-18.388 18.015 0 11.21 7.475 18.685 17.79 18.685 9.12 0 14.203-5.53 14.203-13.978 0-1.868-.3-4.26-.748-5.756-.077 0-22.574-.297-22.574-.297v-.225h-.002M440.01 20.874h-8.82v34.234l8.82 1.273v-5.605c2.168 3.663 4.934 5.68 8.97 5.68 2.092 0 4.26-.448 6.128-1.57l-1.943-7.924c-1.644.898-3.29 1.347-4.933 1.347-3.065 0-5.905-1.943-8.223-6.13V20.875M478.728 20.8h-9.42l-13.154 34.533h9.417l8.67-25.19 8.3 25.19h9.492L478.728 20.8M496.665 20.874v34.234l8.82 1.273V20.877h-8.82v-.002zm4.41 40.737c-3.437 0-5.38 2.094-5.38 5.31 0 3.137 1.943 5.305 5.38 5.305 3.515 0 5.458-2.168 5.458-5.306 0-3.215-1.943-5.31-5.457-5.31M530.75 19.754c-11.213 0-17.865 6.952-17.865 18.24 0 11.212 7.326 18.462 18.164 18.462 4.71 0 8.745-1.046 11.883-2.913l-1.868-7.102c-2.84 1.793-6.13 2.766-9.342 2.766-6.354 0-9.792-4.335-9.792-10.987 0-7.03 3.962-11.14 9.793-11.14 3.587 0 6.876.973 9.567 2.69l1.42-7.176c-2.99-1.794-7.324-2.84-11.96-2.84M571.336 41.655v.6c0 4.632-2.016 7.548-6.576 7.548-4.86 0-7.775-3.962-8.223-8.223l14.8.075zm-15.024-5.457c.374-5.606 4.186-9.418 10.315-9.418 3.663 0 7.625 1.197 10.765 3.14l1.12-7.326c-3.288-1.792-7.848-2.84-12.48-2.84-11.064 0-18.39 7.026-18.39 18.015 0 11.21 7.475 18.685 17.79 18.685 9.12 0 14.203-5.53 14.203-13.978 0-1.868-.298-4.26-.748-5.756l-22.573-.297v-.225h-.002M597.646 19.68c-4.484 0-9.94 1.27-13.38 3.214l1.944 6.877c3.438-1.942 7.85-3.213 11.66-3.213 3.44 0 5.68 1.42 5.68 3.812 0 2.69-2.913 3.662-6.95 4.633-6.503 1.497-11.66 4.188-11.66 10.69 0 6.504 5.454 10.763 13.752 10.763 4.262 0 9.343-1.12 12.557-2.764l-1.944-6.877c-3.363 1.72-7.774 2.84-10.838 2.84-3.214 0-5.157-1.197-5.157-3.438 0-2.615 2.917-3.514 6.953-4.486 6.577-1.57 11.735-4.11 11.735-10.837 0-6.43-5.53-11.212-14.352-11.212" fill="#3d3c3f"/><path d="M78.807 157.613c43.523 0 78.806-35.283 78.806-78.806C157.613 35.283 122.33 0 78.807 0 35.283 0 0 35.283 0 78.807c0 43.523 35.283 78.806 78.807 78.806" fill="#2a786f"/><path d="M102.543 59.91c-7.063 0-13.05 7.878-17.86 14.21l-1.31 1.72c-5.477 7.12-11.99 14.635-21.016 16.585 1.883 8.105 9.15 14.17 17.82 14.17 8.806 0 16.178-6.25 17.917-14.548-3.914-1.095-7.15-3.268-9.91-5.465l6.19-7.777c3.955 3.147 6.71 4.27 9.83 4.003 5.655-.482 10.43-5.685 10.43-11.36 0-6.365-5.425-11.54-12.09-11.54zm5.58 32.27c-1.908 13.733-13.697 24.352-27.948 24.352-14.244 0-26.029-10.61-27.945-24.335-9.45-2.417-16.45-10.79-16.45-20.752 0-10.878 8.79-20.44 19.595-21.312 7.43-.61 12.974 3.036 17.41 6.676l-6.3 7.685c-3.628-2.97-6.636-4.74-10.313-4.455-5.667.458-10.456 5.68-10.456 11.405 0 6.36 5.424 11.537 12.09 11.537 6.947 0 12.77-6.815 17.685-13.204l1.275-1.67c5.815-7.653 13.782-18.14 25.776-18.14 12.15 0 22.03 9.635 22.03 21.477.002 9.754-7.14 18.452-16.447 20.734" fill="#fff"/></g></svg>