<svg xmlns="http://www.w3.org/2000/svg" width="71mm" height="19mm" viewBox="0 0 71 19"><g fill="#00adee"><ellipse cx="23.251" cy=".742" rx=".416" ry=".36"/><ellipse cx="23.795" cy="1.434" rx=".416" ry=".353"/><ellipse cx="27.206" cy=".733" rx=".416" ry=".353"/><ellipse cx="27.203" cy="1.432" rx=".416" ry=".353"/><path d="M23.21.385h3.967v1.403H23.21z"/><path d="M22.835.715h4.786v.694h-4.785z"/><ellipse cx="23.251" cy="1.424" rx=".416" ry=".36"/></g><g transform="translate(0 -31)"><ellipse cx="10.304" cy="47.814" rx="2.317" ry="1.61" fill="#00adee" fill-rule="evenodd"/><ellipse cx="17.923" cy="47.825" rx="2.251" ry="1.61" fill="#00adee" fill-rule="evenodd"/><ellipse cx="2.53" cy="47.832" rx="2.117" ry="1.61" fill="#00adee" fill-rule="evenodd"/><path d="M5.037 34.199a4.612 3.047 0 0 0-4.612 3.045A4.612 3.047 0 0 0 4.68 40.28v-1.562h3.323v.856a4.612 3.047 0 0 0 1.646-2.33A4.612 3.047 0 0 0 5.036 34.2zM15.567 34.195a4.612 3.03 0 0 1 4.612 3.03 4.612 3.03 0 0 1-4.256 3.02v-1.553h-3.322v.85a4.612 3.03 0 0 1-1.647-2.316 4.612 3.03 0 0 1 4.612-3.03z" fill="#00adee" fill-rule="evenodd"/><path fill="#00adee" d="M.42 37.366h4.225v10.55H.42zM7.99 37.418h4.635V47.88H7.99zM15.67 37.315h4.506v10.478H15.67z"/><ellipse cx="32.474" cy="47.049" rx="2.436" ry="2.392" fill="#00adee"/><ellipse cx="33.073" cy="46.435" rx=".14" ry=".029" fill="#00adee"/><ellipse cx="32.485" cy="36.403" rx="2.422" ry="2.363" fill="#00adee"/><ellipse cx="25.356" cy="47.06" rx="2.345" ry="2.363" fill="#00adee"/><ellipse cx="25.362" cy="36.462" rx="2.348" ry="2.363" fill="#00adee"/><path fill="#00adee" d="M23.015 36.586h4.688v10.5h-4.688z"/><path fill="#fff" d="M58.855 34.515h11.87v1.066h-11.87z"/><path fill="#fff" d="M58.855 35.448h1.132v2.734h-1.132zM69.6 35.507h1.102v2.653H69.6zM64.213 35.502h1.117V48.5h-1.117z"/><path fill="#fff" d="M61.964 48.317h5.652v1.14h-5.652zM50.943 48.3h5.652v1.138h-5.652z"/><path fill="#fff" d="M53.18 35.446H54.3v12.988H53.18z"/><path fill="#fff" d="M50.95 34.496h5.653v1.14H50.95zM46.15 41.265h3.39v.853h-3.39z"/><path d="M30.773 38.067l3.56 3.477 3.32-3.2-3.412-3.565z" fill="#00adee" fill-rule="evenodd"/><ellipse cx="42.899" cy="36.389" rx="2.422" ry="2.363" fill="#fff"/><ellipse cx="42.936" cy="47.068" rx="2.422" ry="2.363" fill="#fff"/><path d="M34.32 41.54l3.33-3.202 3.328 3.35-3.28 3.248z" fill="#95d1f6" fill-rule="evenodd"/><path d="M30.795 45.326l3.534-3.78 3.377 3.398-3.26 3.52z" fill="#00adee" fill-rule="evenodd"/><path d="M41.106 48.618l-3.4-3.687 3.276-3.245 3.813 3.846-3.66 3.103z" fill="#fff" fill-rule="evenodd"/><path d="M41.187 34.728l-3.57 3.626 3.36 3.34 3.9-3.916z" fill="#fff" fill-rule="evenodd"/><path fill="#00adee" d="M4.88 34.196h10.903v3.716H4.88z"/></g></svg>